<?xml version="1.0"?>
<svg width="48" height="64.8" xmlns="http://www.w3.org/2000/svg" xmlns:svg="http://www.w3.org/2000/svg">
 <g>
  <title>Layer 1</title>
  <g id="svg_1">
   <path fill="#ff6347" id="svg_2" d="m48,12.252c0,-4.194 -3.411999,-7.606 -7.606998,-7.606c-2.687,0 -5.141003,1.417 -6.505001,3.675c-2.881001,-1.775 -6.261,-2.819 -9.887001,-2.819c-3.626999,0 -7.007,1.043 -9.888999,2.819c-1.364,-2.258 -3.818001,-3.675 -6.505001,-3.675c-4.195,0 -7.607,3.413 -7.607,7.606c0,3.473001 2.411,6.516 5.717,7.368001c-0.405,1.538 -0.643,3.143999 -0.643,4.807999c0,10.435999 8.491,18.926001 18.927,18.926001c10.435001,0 18.924,-8.490002 18.924,-18.926001c0,-1.664 -0.237,-3.269999 -0.641998,-4.807999c3.306,-0.852001 5.716999,-3.894001 5.716999,-7.368001zm-41.679,5.478c-2.51,-0.591999 -4.362,-2.858999 -4.362,-5.478c0,-3.114 2.534,-5.647 5.648,-5.647c2.034,0 3.885,1.097 4.885,2.833c-2.761,2.124001 -4.914,4.984 -6.171,8.292zm9.569,9.659c-0.956,0 -1.73,-0.775 -1.73,-1.730999c0,-0.957001 0.774,-1.732 1.73,-1.732s1.73,0.775 1.73,1.732c0,0.955 -0.774,1.730999 -1.73,1.730999zm13.959001,9.882c-0.243,0.123001 -1.848001,0.898998 -3.466002,0.898998c-0.674,0 -1.351,-0.134998 -1.932999,-0.508999c-0.173,-0.111 -0.309,-0.258999 -0.450001,-0.399998c-0.142,0.141998 -0.277,0.288998 -0.450001,0.399998c-0.581999,0.374001 -1.258999,0.508999 -1.932999,0.508999c-1.618,0 -3.223001,-0.775997 -3.466002,-0.898998c-0.481998,-0.243 -0.676998,-0.831001 -0.434,-1.313c0.241001,-0.483002 0.828001,-0.677002 1.314001,-0.437c0.775,0.389 2.643999,1.021 3.457001,0.492001c0.369999,-0.237999 0.497,-0.771 0.525,-1.290001c-1.293001,-0.225998 -2.234001,-0.869999 -2.234001,-1.640999c0,-0.956001 1.442001,-1.731001 3.221001,-1.731001c1.777,0 3.219,0.775 3.219,1.731001c0,0.771 -0.941,1.415001 -2.233999,1.640999c0.028,0.519001 0.154999,1.052002 0.525,1.290001c0.813999,0.528 2.681999,-0.104 3.457001,-0.492001c0.487,-0.240002 1.073,-0.047001 1.313999,0.437c0.243999,0.480999 0.049999,1.069 -0.431999,1.313zm0.877998,-9.882c-0.955,0 -1.73,-0.775 -1.73,-1.730999c0,-0.957001 0.775,-1.732 1.73,-1.732c0.956001,0 1.731001,0.775 1.731001,1.732c0,0.955 -0.775,1.730999 -1.731001,1.730999zm10.952002,-9.659c-1.257999,-3.308 -3.41,-6.167999 -6.171001,-8.292999c1,-1.735 2.851002,-2.832 4.885002,-2.832c3.113998,0 5.647999,2.533 5.647999,5.647c0,2.619 -1.853001,4.887 -4.362,5.478z"/>
  </g>
  <text id="svg_3" fill="#bfbfbf" font-family="Helvetica Neue, Helvetica, Arial-Unicode, Arial, Sans-serif" font-weight="bold" font-size="2.4" y="48.9" x="0">Created by Creative Stall</text>
  <text x="0" id="svg_4" fill="#bfbfbf" font-family="Helvetica Neue, Helvetica, Arial-Unicode, Arial, Sans-serif" font-weight="bold" font-size="2.4" y="51.3">from the Noun Project</text>
 </g>
</svg>